<?xml version="1.0" encoding="UTF-8"?>
<svg width="752pt" height="752pt" version="1.1" viewBox="0 0 752 752" xmlns="http://www.w3.org/2000/svg">
 <g>
  <path d="m464.8 597.99v-22.199h14.801v-421.78h-207.19v421.78h14.801v22.199h44.398l-0.003907-22.199h88.797v22.199zm-14.801-14.801h-14.797v-7.3984h14.801zm-133.19 0h-14.801v-7.3984h14.801zm14.801-22.199h-44.402v-392.18h177.59v392.18h-133.2z"/>
  <path d="m302 257.61h148v-73.996h-148zm14.801-59.199 118.39 0.003906v44.398h-118.39z"/>
  <path d="m331.6 213.21h59.199v14.801h-59.199z"/>
  <path d="m405.6 213.21h14.801v14.801h-14.801z"/>
  <path d="m302 346.4h148v-73.996h-148zm14.801-59.199h118.39v44.398h-118.39z"/>
  <path d="m331.6 302h59.199v14.801h-59.199z"/>
  <path d="m405.6 302h14.801v14.801h-14.801z"/>
  <path d="m302 457.4h148v-73.996h-148zm14.801-59.199h118.39v44.398h-118.39z"/>
  <path d="m331.6 413h59.199v14.801h-59.199z"/>
  <path d="m405.6 413h14.801v14.801h-14.801z"/>
  <path d="m302 546.2h148v-73.996h-148zm14.801-59.199h118.39v44.398h-118.39z"/>
  <path d="m331.6 501.8h59.199v14.801h-59.199z"/>
  <path d="m405.6 501.8h14.801v14.801h-14.801z"/>
 </g>
</svg>
