<?xml version="1.0" encoding="UTF-8"?>
<svg width="752pt" height="752pt" version="1.1" viewBox="0 0 752 752" xmlns="http://www.w3.org/2000/svg">
 <g>
  <path d="m585.73 173.04h-419.46c-3.7227 0-6.7656 3.043-6.7656 6.7656v81.184c0 3.7891 3.043 6.7656 6.7656 6.7656h419.46c3.7227 0 6.7656-2.9766 6.7656-6.7656v-81.184c0-3.7227-3.0469-6.7656-6.7656-6.7656zm-351.8 67.652c-11.164 0-20.297-9.0664-20.297-20.297 0-11.164 9.1328-20.297 20.297-20.297 11.164 0 20.297 9.1328 20.297 20.297 0 11.23-9.1328 20.297-20.297 20.297zm67.656 0c-11.164 0-20.297-9.0664-20.297-20.297 0-11.164 9.1328-20.297 20.297-20.297 11.164 0 20.297 9.1328 20.297 20.297 0 11.23-9.1328 20.297-20.297 20.297zm111.83-13.531h-50.945c-3.7227 0-6.7656-2.9766-6.7656-6.7656 0-3.7227 3.043-6.7656 6.7656-6.7656h50.945c3.7227 0 6.7656 3.043 6.7656 6.7656 0 3.7891-3.043 6.7656-6.7656 6.7656zm57.168-5.4102c-0.066406 0.40625-0.20312 0.87891-0.40625 1.2852-0.13672 0.40625-0.33594 0.74219-0.60938 1.1484-0.26953 0.33984-0.53906 0.67578-0.8125 1.0156-0.67578 0.60938-1.4219 1.1484-2.2344 1.4883-0.80859 0.33984-1.6875 0.47266-2.5664 0.47266-1.7578 0-3.5195-0.67578-4.8047-1.9609-1.2188-1.2188-1.9609-2.9766-1.9609-4.8047 0-1.7578 0.74219-3.5195 1.9609-4.7344 1.8945-1.8945 4.8711-2.5039 7.375-1.4883 0.8125 0.33984 1.5547 0.8125 2.2305 1.4883 1.2188 1.2188 1.9648 2.9766 1.9648 4.7344 0 0.47656-0.070312 0.88281-0.13672 1.3555zm38.766 3.4492c-1.2852 1.2852-3.043 1.9609-4.8047 1.9609-0.87891 0-1.7578-0.13672-2.5703-0.47266-0.87891-0.33984-1.5547-0.87891-2.2344-1.4883-0.60938-0.60938-1.082-1.3516-1.4219-2.1641-0.33594-0.87891-0.53516-1.7578-0.53516-2.6406 0-1.7578 0.74219-3.5195 1.9609-4.7344 0.67578-0.67578 1.3516-1.1484 2.2344-1.4883 2.5039-1.0156 5.4805-0.40625 7.375 1.4883 0.26953 0.26953 0.60938 0.60938 0.8125 1.0156 0.26953 0.33984 0.47266 0.74219 0.60938 1.1484 0.20312 0.40625 0.33984 0.8125 0.40625 1.2852 0.0625 0.40625 0.12891 0.88281 0.12891 1.2852 0 1.8281-0.74219 3.5195-1.9609 4.8047zm42.016-2.1641c-0.33984 0.8125-0.8125 1.5547-1.4219 2.1641-0.67578 0.60938-1.4219 1.1484-2.2344 1.4883-0.80859 0.33984-1.6914 0.47266-2.5703 0.47266-0.87891 0-1.7578-0.13672-2.5703-0.47266-0.87891-0.33984-1.5547-0.87891-2.2344-1.4883-0.60938-0.60938-1.082-1.3516-1.4219-2.1641-0.33594-0.87891-0.53906-1.6914-0.53906-2.6406 0-0.87891 0.20312-1.7578 0.54297-2.5703 0.33594-0.8125 0.8125-1.5547 1.418-2.1641 0.67578-0.67578 1.3516-1.1484 2.2344-1.4883 1.625-0.67578 3.5195-0.67578 5.1406 0 0.8125 0.33984 1.5586 0.8125 2.2344 1.4883 0.60938 0.60938 1.082 1.3516 1.4219 2.1641 0.33594 0.8125 0.53906 1.6914 0.53906 2.5703 0 0.94922-0.20312 1.7617-0.53906 2.6406z"/>
  <path d="m585.73 294.84h-419.46c-3.7227 0-6.7656 3.043-6.7656 6.7656v81.184c0 3.7891 3.043 6.7656 6.7656 6.7656h419.46c3.7227 0 6.7656-2.9766 6.7656-6.7656v-81.184c0-3.7227-3.0469-6.7656-6.7656-6.7656zm-351.8 67.652c-11.164 0-20.297-9.0664-20.297-20.297 0-11.164 9.1328-20.297 20.297-20.297 11.164 0 20.297 9.1328 20.297 20.297 0 11.23-9.1328 20.297-20.297 20.297zm67.656 0c-11.164 0-20.297-9.0664-20.297-20.297 0-11.164 9.1328-20.297 20.297-20.297 11.164 0 20.297 9.1328 20.297 20.297 0 11.23-9.1328 20.297-20.297 20.297zm111.81-13.508h-50.922c-3.7344 0-6.7656-3.0273-6.7656-6.7656 0-3.7344 3.0273-6.7656 6.7656-6.7656h50.922c3.7344 0 6.7656 3.0273 6.7656 6.7656 0 3.7383-3.0273 6.7656-6.7656 6.7656zm57.191-5.4375c-0.066406 0.40625-0.20312 0.88281-0.40625 1.2891-0.13672 0.40234-0.33594 0.74219-0.60938 1.1484-0.26953 0.33594-0.54297 0.67578-0.8125 1.0156-0.67578 0.60938-1.4219 1.1484-2.2344 1.4883-0.8125 0.33984-1.6914 0.47656-2.5703 0.47656-1.7578 0-3.5195-0.67578-4.8047-1.9609-1.2188-1.2188-1.9609-2.9766-1.9609-4.8047 0-1.7617 0.74219-3.5195 1.9609-4.7383 1.8945-1.8945 4.8711-2.5039 7.375-1.4883 0.8125 0.33594 1.5547 0.80859 2.2344 1.4883 1.2188 1.2188 1.9609 2.9766 1.9609 4.7383 0 0.46875-0.066406 0.875-0.13281 1.3477zm38.766 3.4531c-1.2852 1.2852-3.0469 1.9609-4.8047 1.9609-0.87891 0-1.7578-0.13672-2.5703-0.47656-0.87891-0.33594-1.5547-0.87891-2.2344-1.4883-0.60938-0.60938-1.082-1.3555-1.4219-2.1641-0.33984-0.88281-0.54297-1.7617-0.54297-2.6406 0-1.7617 0.74219-3.5195 1.9609-4.7383 0.67578-0.67578 1.3555-1.1484 2.2344-1.4883 2.5039-1.0156 5.4805-0.40625 7.375 1.4883 0.26953 0.26953 0.60938 0.60938 0.8125 1.0156 0.26953 0.33984 0.47266 0.74609 0.60938 1.1523 0.20312 0.40234 0.33984 0.80859 0.40625 1.2852 0.070313 0.40625 0.13672 0.87891 0.13672 1.2852 0 1.832-0.74219 3.5234-1.9609 4.8086zm42.012-2.1641c-0.33594 0.80859-0.8125 1.5547-1.4219 2.1641-0.67578 0.60938-1.4219 1.1484-2.2344 1.4883-0.8125 0.33984-1.6914 0.47656-2.5703 0.47656-0.87891 0-1.7578-0.13672-2.5703-0.47656-0.87891-0.33594-1.5547-0.87891-2.2344-1.4883-0.60938-0.60938-1.082-1.3555-1.4219-2.1641-0.33984-0.88281-0.54297-1.6914-0.54297-2.6406 0-0.87891 0.20312-1.7617 0.54297-2.5703 0.33594-0.8125 0.8125-1.5547 1.4219-2.168 0.67578-0.67578 1.3555-1.1484 2.2344-1.4883 1.6211-0.67578 3.5195-0.67578 5.1406 0 0.8125 0.33594 1.5547 0.80859 2.2344 1.4883 0.60938 0.60937 1.082 1.3555 1.4219 2.168 0.33984 0.80859 0.54297 1.6914 0.54297 2.5703 0 0.94922-0.20312 1.7578-0.54297 2.6406z"/>
  <path d="m585.73 511.38c3.7227 0 6.7656-2.9766 6.7656-6.7656v-81.184c0-3.7227-3.043-6.7656-6.7656-6.7656l-419.46-0.003906c-3.7227 0-6.7656 3.043-6.7656 6.7656v81.184c0 3.7891 3.043 6.7656 6.7656 6.7656h202.96v17.996h-13.059c-9.6758 0-17.859 6.7656-20.094 15.762l-169.81 0.003907c-3.7227 0-6.7656 3.043-6.7656 6.7656 0 3.7891 3.043 6.7656 6.7656 6.7656h169.14v13.531c0 3.7891 3.043 6.7656 6.7656 6.7656h67.656c3.7227 0 6.7656-2.9766 6.7656-6.7656v-13.531h169.14c3.7227 0 6.7656-2.9766 6.7656-6.7656 0-3.7227-3.043-6.7656-6.7656-6.7656h-169.82c-2.2305-9-10.418-15.762-20.094-15.762h-13.059v-17.996zm-46.816-49.93c0.33984-0.8125 0.8125-1.5547 1.4219-2.1641 0.67578-0.67578 1.3516-1.1484 2.2344-1.4883 1.625-0.67578 3.5195-0.67578 5.1406 0 0.80859 0.33594 1.5547 0.8125 2.2305 1.4883 0.60938 0.60938 1.082 1.3516 1.4219 2.1641 0.33594 0.8125 0.53906 1.6914 0.53906 2.5703 0 0.94531-0.20312 1.7578-0.54297 2.6367-0.33984 0.8125-0.8125 1.5547-1.4219 2.1641-0.67578 0.60938-1.4219 1.1523-2.2344 1.4883-0.8125 0.33984-1.6914 0.47266-2.5703 0.47266-0.87891 0-1.7578-0.13672-2.5703-0.47266-0.87891-0.33984-1.5547-0.87891-2.2344-1.4883-0.60938-0.60937-1.082-1.3516-1.4219-2.1641-0.33203-0.87891-0.53516-1.6875-0.53516-2.6367 0-0.87891 0.20312-1.7578 0.54297-2.5703zm-39.172-2.1641c0.67578-0.67578 1.3516-1.1484 2.2344-1.4883 2.5039-1.0156 5.4805-0.40625 7.375 1.4883 0.26953 0.26953 0.60938 0.60938 0.8125 1.0156 0.26953 0.33984 0.47266 0.74219 0.60938 1.1484 0.20312 0.40625 0.33984 0.8125 0.40625 1.2852 0.0625 0.40625 0.12891 0.87891 0.12891 1.2852 0 1.8281-0.74219 3.5195-1.9609 4.8047-1.2852 1.2852-3.043 1.9609-4.8047 1.9609-0.87891 0-1.7578-0.13672-2.5703-0.47266-0.87891-0.33984-1.5547-0.87891-2.2344-1.4883-0.60938-0.60938-1.082-1.3516-1.4219-2.1641-0.33594-0.88281-0.53516-1.7617-0.53516-2.6406 0-1.7578 0.74219-3.5195 1.9609-4.7344zm-40.594 0c1.8945-1.8945 4.8711-2.5039 7.375-1.4883 0.8125 0.33594 1.5547 0.8125 2.2305 1.4883 1.2188 1.2148 1.9648 2.9766 1.9648 4.7344 0 0.47266-0.066406 0.87891-0.13672 1.3516-0.066406 0.40625-0.20312 0.87891-0.40625 1.2852-0.13672 0.40625-0.33984 0.74219-0.60938 1.1484-0.26953 0.34375-0.53906 0.67969-0.8125 1.0195-0.67578 0.60938-1.4219 1.1523-2.2344 1.4883-0.8125 0.33984-1.6914 0.47266-2.5703 0.47266-1.7578 0-3.5195-0.67578-4.8047-1.9609-1.2148-1.2188-1.957-2.9766-1.957-4.8047 0-1.7578 0.74219-3.5195 1.9609-4.7344zm-225.22 25.031c-11.164 0-20.297-9.0664-20.297-20.297 0-11.164 9.1328-20.297 20.297-20.297 11.164 0 20.297 9.1328 20.297 20.297 0 11.23-9.1328 20.297-20.297 20.297zm67.656 0c-11.164 0-20.297-9.0664-20.297-20.297 0-11.164 9.1328-20.297 20.297-20.297 11.164 0 20.297 9.1328 20.297 20.297 0 11.23-9.1328 20.297-20.297 20.297zm60.887-13.531c-3.7227 0-6.7656-3.043-6.7656-6.7656 0-3.7227 3.043-6.7656 6.7656-6.7656h50.945c3.7227 0 6.7656 3.043 6.7656 6.7656 0 3.7227-3.043 6.7656-6.7656 6.7656z"/>
 </g>
</svg>
